<?xml version="1.0" encoding="UTF-8" standalone="no"?><!DOCTYPE svg PUBLIC "-//W3C//DTD SVG 1.1//EN" "http://www.w3.org/Graphics/SVG/1.1/DTD/svg11.dtd"><svg width="100%" height="100%" viewBox="0 0 734 518" version="1.1" xmlns="http://www.w3.org/2000/svg" xmlns:xlink="http://www.w3.org/1999/xlink" xml:space="preserve" xmlns:serif="http://www.serif.com/" style="fill-rule:evenodd;clip-rule:evenodd;stroke-linejoin:round;stroke-miterlimit:2;"><rect id="Artboard2" x="0" y="0" width="734" height="518" style="fill:none;"/><clipPath id="_clip1"><rect x="0" y="0" width="734" height="518"/></clipPath><g clip-path="url(#_clip1)"><path d="M367,518c-87.208,-1.592 -199.154,-3.887 -259.22,-10.266c-111.169,-11.806 -107.579,-130.343 -107.78,-248.734c0.201,-118.391 -3.389,-236.928 107.78,-248.734c60.066,-6.379 172.012,-8.674 259.22,-10.266c87.208,1.592 199.154,3.887 259.22,10.266c111.169,11.806 107.579,130.343 107.78,248.734c-0.201,118.391 3.389,236.928 -107.78,248.734c-60.066,6.379 -172.012,8.674 -259.22,10.266Zm-75,-367.911l0,219.756l192.417,-109.916l-192.417,-109.84Z" style="fill:#dce3f3;"/></g></svg>